<?xml version="1.0" encoding="utf-8"?>
<!-- Generator: Adobe Illustrator 21.0.0, SVG Export Plug-In . SVG Version: 6.00 Build 0)  -->
<svg version="1.1" id="Objects" xmlns="http://www.w3.org/2000/svg" xmlns:xlink="http://www.w3.org/1999/xlink" x="0px" y="0px"
	 viewBox="0 0 742.9 92.5" style="enable-background:new 0 0 742.9 92.5;" xml:space="preserve">
<style type="text/css">
	.st0{fill:#A3BA48;}
	.st1{fill:#95AA3D;}
	.st2{fill:#7B8E2D;}
	.st3{fill:#C6D85D;}
</style>
<g>
	<g>
		<g>
			<path class="st0" d="M746.5,42.8c-3.8-1-13.8,16.9-13.8,16.9s-5.7-12.6-13.3-13.2c-7.6-0.6-16.2,10.6-16.2,10.6
				s-13.8-24.8-20.5-23.3s-8.1,26-8.1,26s-9.5-8.3-13.3-9.3s-21,9.3-21,9.3s-10.5-17.9-15.7-18.3s-15.7,15.2-15.7,15.2
				s-6.7-9.1-11-10.1c-4.3-1.1-10.5,10.1-10.5,10.1s-14.8-44.7-30-44.7c-19.5,0-43.8,47.8-43.8,47.8s1-9.8-2.4-9.8
				s-11.4,9.8-11.4,9.8s-3.3-17.4-8.1-17.4s-14,17.4-14,17.4s-18.7-25.4-27.1-24.9S433,59.7,433,59.7s-11-14.5-15.8-13.2
				c-4.9,1.3-8.5,13.2-8.5,13.2s-17.3-19.3-24.3-19.8c-7-0.5-29.5,17.3-29.5,17.3s-2-14.1-4.7-15.7c-2.8-1.6-10.1,7-10.1,7
				s4.2-11.9,2.6-13.5c-1.7-1.6-10.9,11.5-10.9,11.5s-18.1-32.9-37.8-29.9c-16.7,2.5-27.3,43.1-27.3,43.1s-22.5-15-27.4-16
				c-4.9-1.1-20.6,11.4-20.6,11.4s-4.3-14.6-9.2-15.2c-4.9-0.5-12.5,10-12.5,10s-10.3-40.4-19-38c-8.7,2.3-15.7,43.2-15.7,43.2
				s-10.8-18.4-17.9-18.6c-7-0.2-12.5,23.3-12.5,23.3s-13-9-16.8-9.8c-3.8-0.8-22.2,7.3-22.2,7.3s-0.5-11.9-3.8-13.1
				c-3.2-1.2-17.9,5.8-17.9,5.8s-7-48-18.4-49.4S18.7,46.2,18.7,46.2S3.5,32.8-1.9,35.5c-5.4,2.7,2.4,56.9,2.4,56.9h746V76.1
				C746.5,76.1,750.3,43.7,746.5,42.8z"/>
			<path class="st1" d="M670.2,66.5c-39.3,7.2-81.1,10.8-114.7-17.9c-2-1-6-1-8,0c-46,30-98,32-149,19c-4.5-1-9.5-0.5-13.5,1.5
				c-12.8,6.4-27.6,7.6-40.8,2.2c-10.1-4.1-19.4-10-26.7-18.7c-7-7-25-9-30,1c-4,8-8,15-15,16c-33,1-66-1-98-9c-22,19-51,16-78,7
				c-8-3-17-1-25,2c-15,6-19-13-30-17c-12-4-14,16-24,19c-8.3,2.8-14.1-4.7-20.4-9c1.3,14.7,3.4,29.9,3.4,29.9h746V76.1
				c0,0,0.4-3.3,0.8-7.9c-12.8,1.2-26.7,3.8-38.7,0.4C696,65.1,683,64.2,670.2,66.5z"/>
			<g>
				<g>
					<path class="st2" d="M732.6,59.7c2.1-4.2,4.5-8.2,7.3-12c0.7-1,1.4-1.9,2.2-2.8c0.8-0.9,1.7-1.7,2.8-2.3c0.3-0.1,0.6-0.3,1-0.3
						c0.2,0,0.4,0,0.6,0.1c0.2,0.1,0.4,0.2,0.6,0.3c0.5,0.6,0.7,1.2,0.9,1.8c0.3,1.2,0.4,2.4,0.5,3.6c0.1,2.4,0.1,4.7,0,7.1
						c-0.1,2.3-0.2,4.7-0.4,7c-0.4,4.7-0.9,9.3-1.7,14l0.5-7c0.2-2.3,0.3-4.7,0.4-7c0.2-4.7,0.5-9.3,0.2-14
						c-0.1-1.2-0.2-2.3-0.4-3.4c-0.1-0.5-0.3-1.1-0.6-1.4c-0.1-0.2-0.7-0.2-1.1,0.1c-0.9,0.5-1.8,1.3-2.6,2.1
						c-0.8,0.8-1.5,1.7-2.3,2.6c-1.4,1.8-2.8,3.7-4.1,5.7C735.1,55.7,733.9,57.7,732.6,59.7z"/>
				</g>
				<g>
					<path class="st2" d="M703.1,57.1c1.9-2.7,4.2-5.2,6.8-7.2c1.3-1.1,2.7-2,4.2-2.7c1.5-0.7,3.2-1.2,5-1.1
						c1.8,0.1,3.4,0.8,4.8,1.7c1.4,0.9,2.6,2.2,3.7,3.4c2.1,2.6,3.8,5.5,5,8.5c-0.8-1.4-1.7-2.8-2.6-4.2c-0.9-1.4-1.9-2.7-3-3.8
						c-1.1-1.2-2.3-2.3-3.6-3.2c-1.3-0.9-2.8-1.5-4.4-1.5c-1.5-0.1-3.1,0.4-4.6,1c-1.5,0.6-2.8,1.5-4.2,2.5c-1.3,1-2.6,2-3.8,3.1
						C705.4,54.7,704.2,55.8,703.1,57.1z"/>
				</g>
				<g>
					<path class="st2" d="M674.5,59.7c0.2-5,0.7-10,1.7-15c0.5-2.5,1.2-4.9,2.3-7.3c0.6-1.2,1.2-2.3,2.2-3.2c0.5-0.5,1.1-0.8,1.9-1
						c0.7-0.1,1.5,0,2.1,0.2c1.3,0.5,2.3,1.3,3.3,2.1c1,0.8,1.9,1.7,2.7,2.7c1.7,1.9,3.2,3.9,4.7,6c2.9,4.1,5.5,8.4,7.8,12.9
						c-1.3-2.1-2.7-4.2-4.1-6.3c-1.4-2.1-2.8-4.1-4.3-6.1c-1.5-2-3-4-4.7-5.8c-0.8-0.9-1.7-1.8-2.7-2.6c-0.9-0.8-1.9-1.5-3-1.9
						c-0.5-0.2-1.1-0.3-1.6-0.2c-0.5,0.1-1,0.4-1.4,0.8c-0.9,0.7-1.5,1.8-2,2.9c-1.1,2.2-1.7,4.6-2.3,7c-0.6,2.4-1,4.9-1.4,7.4
						C675.1,54.7,674.8,57.2,674.5,59.7z"/>
				</g>
				<g>
					<path class="st2" d="M640.2,59.7c2.7-1.8,5.6-3.5,8.5-5.1c2.9-1.6,5.8-3.1,9-4.1c0.8-0.2,1.6-0.5,2.5-0.6c0.2,0,0.5,0,0.7,0
						l0.4,0.1l0.3,0.1c0.4,0.1,0.8,0.3,1.2,0.5c1.5,0.8,2.9,1.7,4.2,2.7c2.6,2,5.1,4.1,7.5,6.4c-1.3-1-2.6-2-3.9-3
						c-1.3-1-2.6-1.9-4-2.9c-1.4-0.9-2.7-1.8-4.2-2.5c-0.4-0.2-0.7-0.3-1.1-0.4l-0.3-0.1l-0.2,0c-0.2,0-0.3,0-0.5,0
						c-0.7,0.1-1.5,0.3-2.3,0.5c-3.1,1-6,2.5-9,3.9c-1.5,0.7-2.9,1.5-4.4,2.2L640.2,59.7z"/>
				</g>
				<g>
					<path class="st2" d="M608.8,56.6c2-3.4,4.3-6.5,6.9-9.5c1.3-1.5,2.7-2.9,4.2-4.2c0.8-0.6,1.6-1.2,2.6-1.6
						c0.5-0.2,1-0.4,1.6-0.4c0.6-0.1,1.1,0.1,1.6,0.3c1.9,0.9,3.3,2.4,4.6,3.9c1.3,1.5,2.5,3,3.7,4.6c2.3,3.2,4.3,6.6,6.2,10
						c-1.1-1.6-2.2-3.3-3.3-4.8c-1.1-1.6-2.3-3.2-3.5-4.7c-1.2-1.5-2.4-3.1-3.7-4.5c-1.3-1.4-2.7-2.8-4.4-3.6
						c-0.4-0.2-0.8-0.3-1.2-0.3c-0.4,0-0.8,0.1-1.3,0.3c-0.8,0.3-1.6,0.9-2.4,1.5c-1.5,1.2-2.9,2.6-4.2,4c-1.3,1.4-2.6,2.9-3.8,4.4
						C611.1,53.5,610,55,608.8,56.6z"/>
				</g>
				<g>
					<path class="st2" d="M587.3,56.6c1.1-2.3,2.4-4.5,4-6.5c0.8-1,1.7-2,2.7-2.8c0.5-0.4,1.1-0.8,1.7-1.1c0.6-0.3,1.4-0.4,2.1-0.3
						c1.4,0.4,2.5,1.1,3.5,1.9c1,0.8,1.9,1.7,2.8,2.6c1.7,1.9,3.3,3.9,4.6,6c-0.8-0.9-1.7-1.9-2.6-2.8c-0.9-0.9-1.7-1.8-2.6-2.7
						c-0.9-0.9-1.8-1.7-2.8-2.4c-1-0.7-2-1.5-3.1-1.7c-1-0.2-2.1,0.4-3.1,1.1c-1,0.7-1.8,1.6-2.7,2.5c-0.8,0.9-1.6,1.9-2.4,2.9
						C588.8,54.5,588,55.5,587.3,56.6z"/>
				</g>
				<g>
					<path class="st2" d="M513.5,59.7c4.6-9.2,9.9-18,15.9-26.3c3-4.2,6.3-8.2,9.9-11.8c1.8-1.8,3.7-3.6,5.8-5.1
						c2.1-1.6,4.3-3,6.7-3.9c0.6-0.2,1.2-0.4,1.9-0.6c0.6-0.1,1.3-0.3,1.9-0.4c0.7,0,1.3-0.1,2-0.1c0.7,0.1,1.4,0.1,2,0.3
						c2.6,0.7,4.8,2.3,6.7,4.1c3.7,3.6,6.6,8,9.1,12.5c5,9,8.9,18.5,12,28.3c-1.8-4.8-3.7-9.6-5.8-14.2c-2.1-4.7-4.3-9.3-6.9-13.7
						c-2.6-4.4-5.4-8.7-9-12.2c-1.8-1.7-3.9-3.2-6.3-3.9c-1.2-0.4-2.4-0.3-3.6-0.2c-0.6,0.1-1.2,0.3-1.8,0.4
						c-0.6,0.2-1.2,0.4-1.8,0.6c-2.3,0.9-4.5,2.3-6.5,3.8c-2,1.5-3.9,3.2-5.7,5c-3.6,3.6-6.8,7.6-9.9,11.6
						c-3.1,4.1-5.9,8.3-8.7,12.6C518.5,50.8,515.9,55.2,513.5,59.7z"/>
				</g>
				<g>
					<path class="st2" d="M499.7,59.7c1.2-1.8,2.6-3.5,4.1-5.1c1.5-1.6,3.1-3.1,5-4.3c0.5-0.3,1-0.6,1.6-0.7c0.3,0,0.6-0.1,1-0.1
						c0.3,0.1,0.7,0.2,1,0.4c0.5,0.4,0.8,1,1,1.6c0.2,0.6,0.3,1.1,0.4,1.7c0.3,2.2,0.1,4.4-0.2,6.6c0-1.1,0-2.2-0.1-3.3
						c-0.1-1.1-0.2-2.2-0.4-3.2c-0.2-1-0.5-2.1-1.2-2.6c-0.6-0.5-1.6,0-2.5,0.5c-1.8,1.1-3.4,2.6-5,4c-0.8,0.7-1.6,1.5-2.3,2.3
						L499.7,59.7z"/>
				</g>
				<g>
					<path class="st2" d="M477.5,59.7c1.5-3.2,3.3-6.4,5.2-9.4c1-1.5,2-3,3.1-4.4c1.2-1.4,2.4-2.8,4.1-3.7c0.4-0.2,0.9-0.4,1.5-0.4
						c0.5,0,1.1,0.1,1.5,0.4c0.9,0.5,1.5,1.3,2,2.1c1,1.6,1.7,3.2,2.3,4.9c1.1,3.4,1.9,6.9,2.5,10.4c-0.5-1.7-0.9-3.4-1.5-5.1
						c-0.5-1.7-1.1-3.4-1.7-5c-0.7-1.6-1.4-3.3-2.3-4.7c-0.5-0.7-1-1.4-1.7-1.8c-0.3-0.2-0.7-0.3-1-0.3c-0.3,0-0.7,0.2-1.1,0.3
						c-1.4,0.8-2.7,2.1-3.8,3.4c-1.1,1.3-2.2,2.8-3.2,4.2c-1,1.4-2,2.9-3,4.4C479.4,56.7,478.5,58.2,477.5,59.7z"/>
				</g>
				<g>
					<path class="st2" d="M433,59.7c1.9-5.4,4.2-10.7,7.1-15.7c1.5-2.5,3.1-4.9,5.2-7c1.1-1,2.3-2,3.8-2.5c0.7-0.3,1.6-0.3,2.3-0.2
						c0.8,0.1,1.5,0.3,2.2,0.6c2.7,1.2,5,3.1,7.2,5c2.1,2,4.2,4,6.1,6.2c3.8,4.3,7.4,8.8,10.7,13.6c-1.8-2.2-3.6-4.5-5.5-6.6
						c-1.9-2.2-3.8-4.3-5.7-6.4c-2-2.1-4-4.1-6.1-6c-2.1-1.9-4.4-3.7-6.9-4.8c-0.6-0.3-1.3-0.5-1.9-0.6c-0.6-0.1-1.3-0.1-1.9,0.2
						c-1.3,0.4-2.4,1.2-3.4,2.2c-2,1.9-3.7,4.3-5.2,6.7c-1.5,2.4-2.9,4.9-4.2,7.5C435.3,54.4,434.1,57,433,59.7z"/>
				</g>
				<g>
					<path class="st2" d="M408.6,59.7c0.8-3,1.9-6,3.4-8.7c0.8-1.4,1.7-2.7,2.9-3.8c0.3-0.3,0.7-0.5,1-0.7c0.4-0.2,0.8-0.4,1.2-0.5
						c0.9-0.2,1.8,0.1,2.6,0.4c1.5,0.7,2.8,1.6,4,2.7c1.2,1,2.3,2.1,3.4,3.3c2.1,2.3,4.1,4.8,5.8,7.4c-1-1.2-2.1-2.3-3.1-3.5
						c-1-1.2-2.1-2.3-3.2-3.4c-1.1-1.1-2.2-2.1-3.4-3.1c-1.2-1-2.4-1.9-3.8-2.5c-0.7-0.3-1.4-0.5-2-0.4c-0.3,0-0.6,0.2-1,0.3
						c-0.3,0.2-0.6,0.4-0.9,0.6c-1.1,0.9-2.1,2.2-2.9,3.5c-0.8,1.3-1.5,2.7-2.2,4.1C409.8,56.8,409.2,58.2,408.6,59.7z"/>
				</g>
				<g>
					<path class="st2" d="M354.8,57.2c4.2-3.6,8.6-6.9,13.2-10c2.3-1.6,4.6-3,7.1-4.4c2.4-1.3,4.9-2.7,7.7-3.3
						c0.7-0.1,1.5-0.2,2.2,0c0.7,0.2,1.4,0.4,2,0.7c1.3,0.6,2.5,1.4,3.6,2.2c2.3,1.6,4.4,3.4,6.4,5.3c4.1,3.8,7.9,7.8,11.5,12
						c-1.9-2-3.9-3.9-5.9-5.8c-2-1.9-4-3.8-6.1-5.6c-2.1-1.8-4.2-3.6-6.4-5.1c-1.1-0.8-2.3-1.5-3.5-2.1c-0.6-0.3-1.2-0.5-1.8-0.6
						c-0.6-0.1-1.2-0.1-1.9,0c-2.6,0.5-5.1,1.8-7.5,3.1c-2.4,1.3-4.7,2.8-7.1,4.3c-2.3,1.5-4.6,3-6.9,4.6
						C359.3,53.9,357,55.6,354.8,57.2z"/>
				</g>
				<g>
					<path class="st2" d="M339.9,48.5c1.5-2,3.1-3.8,5-5.5c1-0.8,2-1.6,3.2-2.1c0.6-0.2,1.4-0.4,2.2,0.1c0.7,0.5,1,1,1.3,1.6
						c1.1,2.3,1.7,4.7,2.2,7.2c0.5,2.4,0.8,4.9,1,7.3l-0.8-3.6c-0.3-1.2-0.6-2.4-0.9-3.6c-0.3-1.2-0.6-2.4-1-3.5
						c-0.4-1.2-0.8-2.3-1.3-3.3c-0.9-2.7-3.5-0.8-5.4,0.5c-1,0.7-1.9,1.5-2.8,2.3C341.7,46.8,340.8,47.7,339.9,48.5z"/>
				</g>
				<g>
					<path class="st2" d="M331.7,46.5c1.3-2.2,2.7-4.3,4.3-6.3c0.8-1,1.6-2,2.4-3c0.9-0.9,1.7-1.9,2.9-2.6c0.2-0.1,0.3-0.2,0.5-0.2
						c0.1,0,0.2-0.1,0.4,0c0.1,0,0.3,0,0.4,0.1c0.6,0.3,0.6,0.8,0.7,1.1c0.1,0.7,0.1,1.4,0,2c-0.2,1.3-0.4,2.5-0.8,3.8
						c-0.7,2.4-1.5,4.8-2.6,7.1c0.3-1.2,0.6-2.4,0.9-3.7c0.3-1.2,0.6-2.4,0.9-3.7c0.2-1.2,0.5-2.5,0.6-3.7c0.1-0.6,0.1-1.2,0-1.7
						c0-0.2-0.2-0.5-0.2-0.4c0,0-0.2,0-0.5,0.2c-1,0.6-1.9,1.5-2.7,2.4c-0.9,0.9-1.7,1.9-2.5,2.8c-0.8,0.9-1.6,1.9-2.4,2.9
						L331.7,46.5z"/>
				</g>
				<g>
					<path class="st2" d="M266.5,59.7c2.1-8.4,5-16.6,8.8-24.4c1.9-3.9,4.1-7.7,6.8-11.1c1.4-1.7,2.9-3.3,4.6-4.7
						c1.7-1.4,3.7-2.5,5.9-3.1c2.2-0.5,4.4-0.6,6.6-0.2c2.2,0.4,4.3,1.1,6.3,2c4,1.9,7.5,4.6,10.6,7.6c6.2,6.1,11.4,13.2,15.5,20.8
						c-2.2-3.7-4.7-7.3-7.4-10.6c-2.6-3.4-5.5-6.6-8.7-9.6c-3.2-2.9-6.6-5.6-10.5-7.3c-1.9-0.9-4-1.6-6-1.9
						c-2.1-0.3-4.2-0.3-6.2,0.2c-2,0.5-3.9,1.6-5.5,2.9c-1.7,1.3-3.1,2.9-4.5,4.5c-2.7,3.3-4.8,7.1-6.8,10.9
						c-2,3.8-3.7,7.8-5.2,11.8C269.2,51.5,267.8,55.5,266.5,59.7z"/>
				</g>
				<g>
					<path class="st2" d="M218.5,55c3.5-3,7.3-5.8,11.2-8.3c2-1.2,4-2.4,6.3-3.2c0.6-0.2,1.2-0.4,1.8-0.4c0.6-0.1,1.3-0.1,1.9,0.2
						c0.6,0.2,1.1,0.4,1.7,0.6c0.6,0.2,1.1,0.5,1.6,0.8c2.1,1.1,4.1,2.2,6.1,3.4c2,1.2,4,2.4,5.9,3.7l5.8,3.8c1.9,1.3,3.8,2.6,5.7,4
						l-11.9-7.2c-4-2.4-7.9-4.8-12.1-6.9c-0.5-0.3-1-0.5-1.5-0.8c-0.5-0.2-1-0.5-1.6-0.6c-1-0.4-2-0.1-3.1,0.2
						c-2.1,0.7-4.2,1.8-6.2,3c-2,1.1-4,2.4-5.9,3.7C222.3,52.3,220.4,53.7,218.5,55z"/>
				</g>
				<g>
					<path class="st2" d="M196.9,49.9c1.6-2.5,3.4-4.7,5.5-6.8c1-1,2.2-2,3.5-2.8c0.7-0.4,1.4-0.7,2.1-0.9c0.8-0.2,1.7-0.2,2.4,0.2
						c1.5,0.7,2.4,2,3.3,3.2c0.8,1.2,1.5,2.5,2.1,3.9c1.2,2.7,2.1,5.4,2.8,8.3c-0.5-1.4-1.1-2.7-1.6-4c-0.6-1.3-1.2-2.6-1.8-3.9
						c-0.7-1.3-1.4-2.5-2.2-3.7c-0.8-1.1-1.7-2.3-2.9-2.8c-1.1-0.5-2.5-0.1-3.7,0.6c-1.2,0.7-2.3,1.6-3.4,2.5c-1.1,0.9-2.1,2-3.1,3
						C198.7,47.7,197.8,48.8,196.9,49.9z"/>
				</g>
				<g>
					<path class="st2" d="M162.2,55c1.2-7.5,2.7-15,4.6-22.3c1-3.7,2.1-7.3,3.5-10.9c0.7-1.8,1.5-3.5,2.4-5.2c1-1.7,2-3.4,3.7-4.6
						c0.4-0.3,0.9-0.5,1.4-0.7c0.5-0.1,1.1-0.1,1.6,0c1.1,0.3,1.9,0.9,2.6,1.6c1.4,1.4,2.5,3,3.4,4.7c1.9,3.3,3.4,6.8,4.7,10.4
						c2.7,7.1,4.8,14.4,6.6,21.8c-1.1-3.6-2.2-7.3-3.4-10.9c-1.2-3.6-2.5-7.2-3.9-10.7c-1.4-3.5-2.9-7-4.8-10.2
						c-1-1.6-2-3.2-3.3-4.4c-0.7-0.6-1.4-1.1-2.2-1.3c-0.4-0.1-0.8-0.1-1.2,0c-0.4,0.1-0.8,0.3-1.1,0.5c-1.4,1-2.5,2.6-3.4,4.2
						c-0.9,1.6-1.7,3.4-2.4,5.1c-1.4,3.5-2.5,7.1-3.6,10.7c-1.1,3.6-2,7.3-2.9,11C163.8,47.6,163,51.3,162.2,55z"/>
				</g>
				<g>
					<path class="st2" d="M131.9,59.7c0.9-4.4,2.1-8.8,3.7-13c0.8-2.1,1.8-4.2,2.9-6.1c0.6-1,1.3-1.9,2.1-2.8
						c0.8-0.8,1.8-1.6,3.1-1.8c1.3-0.1,2.5,0.3,3.5,0.8c1,0.6,2,1.3,2.8,2c1.7,1.5,3.3,3.2,4.7,4.9c2.8,3.5,5.3,7.3,7.4,11.3
						c-1.3-1.9-2.5-3.7-3.9-5.5c-1.3-1.8-2.7-3.6-4.2-5.3c-1.5-1.7-3-3.3-4.7-4.7c-0.8-0.7-1.7-1.4-2.7-1.8c-0.9-0.5-2-0.8-2.9-0.7
						c-1,0.1-1.8,0.8-2.6,1.5c-0.8,0.8-1.4,1.6-2,2.6c-1.2,1.9-2.1,3.9-3,5.9c-0.9,2.1-1.7,4.2-2.4,6.3
						C133.1,55.4,132.5,57.5,131.9,59.7z"/>
				</g>
				<g>
					<path class="st2" d="M92.9,57.2c3.2-1.6,6.5-3.1,9.8-4.4c3.3-1.3,6.7-2.6,10.3-3.3c0.5,0,0.9-0.1,1.4-0.1c0.3,0,0.5,0,0.8,0.1
						l0.7,0.2c0.9,0.3,1.7,0.7,2.5,1.1c1.6,0.9,3.1,1.8,4.7,2.7c3,1.9,6,4,8.8,6.2l-4.6-2.8c-1.5-0.9-3.1-1.9-4.6-2.7
						c-1.6-0.9-3.1-1.8-4.7-2.6c-0.8-0.4-1.6-0.8-2.4-1l-0.6-0.2l-0.6,0c-0.4,0-0.8,0.1-1.2,0.1c-3.4,0.6-6.8,1.9-10.2,3
						c-1.7,0.6-3.4,1.2-5,1.8L92.9,57.2z"/>
				</g>
				<g>
					<path class="st2" d="M71.2,49.9c2.4-1.4,4.9-2.6,7.4-3.6c2.5-1.1,5.1-2.1,7.9-2.6c0.7-0.1,1.4-0.2,2.2-0.1
						c0.4,0.1,0.8,0.2,1.2,0.5c0.3,0.3,0.6,0.6,0.8,0.9c0.8,1.3,1.2,2.6,1.5,4c0.6,2.7,0.8,5.5,0.7,8.3c-0.2-1.4-0.4-2.7-0.6-4.1
						c-0.2-1.4-0.5-2.7-0.9-4c-0.4-1.3-0.8-2.6-1.5-3.7c-0.4-0.5-0.8-0.9-1.3-1c-0.6-0.1-1.2,0-1.9,0.1c-2.6,0.5-5.2,1.5-7.8,2.4
						c-1.3,0.5-2.6,1-3.9,1.5L71.2,49.9z"/>
				</g>
				<g>
					<path class="st2" d="M18.7,46.2c4-8.5,8.4-16.8,13.3-24.9c2.4-4,5.1-7.9,8-11.7c1.5-1.9,3-3.7,4.7-5.3c1.7-1.6,3.6-3.3,6-4.1
						c1.2-0.4,2.6-0.4,3.8,0.2c1.2,0.5,2.1,1.4,2.9,2.3c1.6,1.8,2.7,4,3.7,6.1c2,4.3,3.5,8.8,4.7,13.3c2.5,9.1,4.2,18.3,5.5,27.7
						c-0.8-4.6-1.7-9.2-2.8-13.8c-1-4.6-2.1-9.1-3.5-13.6c-1.4-4.5-2.8-9-4.8-13.2c-1-2.1-2.1-4.1-3.6-5.9c-0.8-0.8-1.6-1.6-2.6-2
						c-1-0.5-2-0.5-3.1-0.2c-2.1,0.7-3.9,2.2-5.6,3.8c-1.7,1.6-3.2,3.4-4.6,5.2c-2.9,3.7-5.5,7.6-8,11.5c-2.5,4-4.9,8-7.2,12.1
						C23.1,37.9,20.8,42,18.7,46.2z"/>
				</g>
				<g>
					<path class="st2" d="M0.4,92.5C-0.7,85.8-1.6,79-2.4,72.3c-0.8-6.8-1.4-13.5-1.8-20.3c-0.1-3.4-0.2-6.8,0-10.2
						c0.1-1.7,0.3-3.4,0.9-5.1c0.2-0.4,0.4-0.9,0.8-1.2c0.2-0.2,0.5-0.3,0.7-0.4c0.2-0.1,0.5-0.1,0.7-0.2c0.9-0.1,1.8,0,2.7,0.2
						c1.7,0.4,3.3,1.2,4.8,2c1.5,0.8,2.9,1.8,4.3,2.7c2.8,2,5.4,4.1,7.9,6.4c-2.6-2.1-5.4-4.2-8.2-6c-1.4-0.9-2.9-1.8-4.4-2.6
						c-1.5-0.8-3-1.5-4.6-1.8c-0.8-0.2-1.6-0.3-2.4-0.1c-0.2,0-0.4,0.1-0.5,0.1l-0.3,0.1c-0.1,0-0.1,0.1-0.2,0.1
						c-0.2,0.2-0.4,0.5-0.6,0.9c-0.6,1.5-0.7,3.2-0.8,4.9c-0.2,3.4-0.1,6.8,0.1,10.1c0.3,6.8,0.9,13.5,1.5,20.3
						c0.3,3.4,0.7,6.8,1,10.1L0.4,92.5z"/>
				</g>
			</g>
			<path class="st3" d="M56.5,17.3c0,0,3.3-10.4,11.4-10.8C68,6.4,69.5,15.3,56.5,17.3z"/>
			<path class="st3" d="M57.8,18.2c0,0,11-2.5,13.4,2.8C71.2,21.1,67.6,24.5,57.8,18.2z"/>
			<path class="st3" d="M690.5,44.3c0,0-0.9-10.9,6.5-14.3C697,29.9,701.8,37.6,690.5,44.3z"/>
			<path class="st3" d="M699.4,84.4c0,0-0.9-10.9,6.5-14.3C705.9,70,710.6,77.7,699.4,84.4z"/>
			<path class="st3" d="M692,44.7c0,0,9.3-6.5,13.5-2.4C705.5,42.3,703.4,46.9,692,44.7z"/>
			<path class="st3" d="M565.5,22.4c0,0-0.9-10.9,6.5-14.3C572,8.1,576.8,15.7,565.5,22.4z"/>
			<path class="st3" d="M567,22.8c0,0,9.3-6.5,13.5-2.4C580.5,20.4,578.5,25,567,22.8z"/>
			<path class="st3" d="M278,37.8c0,0-6.9-3.4-5.4-11.9C272.6,25.9,280.5,30,278,37.8z"/>
			<path class="st3" d="M275.5,39.4c0,0-1.9-5.2-10-5.9C265.5,33.4,264.8,41.4,275.5,39.4z"/>
			<path class="st3" d="M490.2,46.5c0,0-7.2-3.5-5.6-12.3C484.7,34.2,492.8,38.4,490.2,46.5z"/>
			<path class="st3" d="M552,15.2c0,0-7-3.4-5.4-12C546.5,3.2,554.4,7.2,552,15.2z"/>
			<path class="st3" d="M555.4,14c0,0-2.1-5.7,3.4-9.6C558.8,4.4,561.1,10.9,555.4,14z"/>
			<path class="st3" d="M619.7,46.7c0,0-7.7,0.8-11-7.3C608.8,39.5,617.6,38.7,619.7,46.7z"/>
			<path class="st3" d="M622,43.9c0,0-4.8-3.7-2.2-10C619.8,33.9,625.2,38.3,622,43.9z"/>
			<path class="st3" d="M740.6,50.7c0,0-7.7,0.8-11-7.3C729.6,43.4,738.5,42.6,740.6,50.7z"/>
			<path class="st3" d="M742.9,47.8c0,0-4.8-3.7-2.2-10C740.7,37.9,746,42.2,742.9,47.8z"/>
			<path class="st3" d="M487.6,48.1c0,0-2-5.3-10.3-6.1C477.3,42,476.6,50.2,487.6,48.1z"/>
			<path class="st3" d="M696.4,88.2c0,0-4.2-3.8-12-0.7C684.4,87.4,687.6,95,696.4,88.2z"/>
			<path class="st3" d="M144.7,39.8c0,0-4.4-9.5,1.2-13.9C145.9,25.9,149.8,30.2,144.7,39.8z"/>
			<path class="st3" d="M147.3,39.8c0,0,1.1-5.6,8.3-6.9C155.6,32.9,153.9,38.6,147.3,39.8z"/>
			<g>
				<path class="st3" d="M29,32.5c0,0-11.8,3.9-16.3-3.3C12.7,29.2,18.3,25.1,29,32.5z"/>
				<path class="st3" d="M30.4,31c0,0-5.4-1.7-5.9-9.1C24.4,21.9,29.9,24.3,30.4,31z"/>
				<path class="st3" d="M23.2,42.6c0,0,0.3-5.7,7.2-8.1C30.5,34.5,29.6,40.4,23.2,42.6z"/>
			</g>
			<g>
				<path class="st3" d="M111.2,70c0,0-12.1-3.1-11.9-11.6C99.3,58.4,106.2,58,111.2,70z"/>
				<path class="st3" d="M113.1,69.4c0,0-3.6-4.4-0.1-10.8C113.1,58.6,116.4,63.6,113.1,69.4z"/>
				<path class="st3" d="M100.9,75.3c0,0,3.3-4.6,10.4-2.9C111.3,72.4,107.4,76.9,100.9,75.3z"/>
			</g>
			<g>
				<path class="st3" d="M239.2,73.5c0,0-2.3-12.2,5.5-15.7C244.7,57.8,248,63.9,239.2,73.5z"/>
				<path class="st3" d="M240.5,75c0,0,2.5-5.1,9.8-4.7C250.3,70.3,247.2,75.4,240.5,75z"/>
				<path class="st3" d="M230,66.3c0,0,5.6,1,7,8.2C237,74.6,231.3,72.9,230,66.3z"/>
			</g>
			<g>
				<path class="st3" d="M403.1,70.5c0,0-2.3-12.2,5.5-15.7C408.6,54.8,411.9,60.9,403.1,70.5z"/>
				<path class="st3" d="M404.4,72c0,0,2.5-5.1,9.8-4.7C414.2,67.3,411.1,72.4,404.4,72z"/>
				<path class="st3" d="M393.9,63.3c0,0,5.6,1,7,8.2C400.9,71.6,395.2,69.9,393.9,63.3z"/>
			</g>
			<g>
				<path class="st3" d="M609.5,83.7c0,0-6-10.9,0.3-16.6C609.7,67,614.8,71.8,609.5,83.7z"/>
				<path class="st3" d="M611.2,84.7c0,0,0.7-5.7,7.8-7.5C619,77.2,617.7,83,611.2,84.7z"/>
				<path class="st3" d="M687.3,79.8c0,0,5.6-0.8,9.3,5.6C696.6,85.4,690.7,85.6,687.3,79.8z"/>
			</g>
			<path class="st3" d="M180.9,14.9c0,0-1.8-8.9,6.9-12.8C187.8,2.2,189.3,12.3,180.9,14.9z"/>
			<path class="st3" d="M183.1,16c0,0,6.2-4.9,10-1.1C193.1,14.9,190.7,18.7,183.1,16z"/>
			<path class="st3" d="M307.5,22.4c0,0-1.8-9,6.9-12.9C314.4,9.5,316,19.7,307.5,22.4z"/>
			<path class="st3" d="M309.7,23.5c0,0,6.3-4.9,10.1-1.1C319.8,22.4,317.3,26.2,309.7,23.5z"/>
			<path class="st3" d="M382.5,42.5c0,0-7.4-6.7-2.4-15.8C380.1,26.6,388.2,34.5,382.5,42.5z"/>
			<path class="st3" d="M385.2,42c0,0,2.3-8.4,8.1-7.6C393.3,34.4,393.6,39.3,385.2,42z"/>
		</g>
	</g>
</g>
</svg>
